<svg width="24" height="25" viewBox="0 0 24 25" fill="none" xmlns="http://www.w3.org/2000/svg">
<path d="M12 6.64185C13.1 6.64185 14 7.54185 14 8.64185C14 9.74185 13.1 10.6418 12 10.6418C10.9 10.6418 10 9.74185 10 8.64185C10 7.54185 10.9 6.64185 12 6.64185ZM12 16.6418C14.7 16.6418 17.8 17.9318 18 18.6418H6C6.23 17.9218 9.31 16.6418 12 16.6418ZM12 4.64185C9.79 4.64185 8 6.43185 8 8.64185C8 10.8518 9.79 12.6418 12 12.6418C14.21 12.6418 16 10.8518 16 8.64185C16 6.43185 14.21 4.64185 12 4.64185ZM12 14.6418C9.33 14.6418 4 15.9818 4 18.6418V20.6418H20V18.6418C20 15.9818 14.67 14.6418 12 14.6418Z" fill="#98989A"/>
</svg>
