<svg width="24" height="25" viewBox="0 0 24 25" fill="none" xmlns="http://www.w3.org/2000/svg">
<path d="M22.54 7.06185C22.4212 6.58726 22.1793 6.15242 21.8387 5.80125C21.498 5.45009 21.0708 5.19503 20.6 5.06185C18.88 4.64185 12 4.64185 12 4.64185C12 4.64185 5.12 4.64185 3.4 5.10185C2.92925 5.23503 2.50198 5.49009 2.16135 5.84125C1.82072 6.19242 1.57879 6.62726 1.46 7.10185C1.14521 8.8474 0.991235 10.6182 0.999999 12.3918C0.988779 14.1789 1.14277 15.9631 1.46 17.7218C1.59096 18.1817 1.83831 18.6 2.17814 18.9363C2.51798 19.2727 2.93882 19.5157 3.4 19.6418C5.12 20.1018 12 20.1018 12 20.1018C12 20.1018 18.88 20.1018 20.6 19.6418C21.0708 19.5087 21.498 19.2536 21.8387 18.9024C22.1793 18.5513 22.4212 18.1164 22.54 17.6418C22.8524 15.9094 23.0063 14.1522 23 12.3918C23.0112 10.6048 22.8572 8.82054 22.54 7.06185V7.06185Z" stroke="#FDFDFD" stroke-width="2" stroke-linecap="round" stroke-linejoin="round"/>
<path d="M9.75 15.6618L15.5 12.3918L9.75 9.12183V15.6618Z" stroke="#FDFDFD" stroke-width="2" stroke-linecap="round" stroke-linejoin="round"/>
</svg>
