<svg width="50" height="51" viewBox="0 0 50 51" fill="none" xmlns="http://www.w3.org/2000/svg">
<circle cx="25" cy="25.1418" r="25" fill="#EBEBEB"/>
<path d="M35.54 19.5618C35.4212 19.0873 35.1793 18.6524 34.8387 18.3013C34.498 17.9501 34.0708 17.695 33.6 17.5618C31.88 17.1418 25 17.1418 25 17.1418C25 17.1418 18.12 17.1418 16.4 17.6018C15.9293 17.735 15.502 17.9901 15.1614 18.3413C14.8207 18.6924 14.5788 19.1273 14.46 19.6018C14.1452 21.3474 13.9913 23.1182 14 24.8918C13.9888 26.6789 14.1428 28.4631 14.46 30.2218C14.591 30.6817 14.8383 31.1 15.1782 31.4363C15.518 31.7727 15.9388 32.0157 16.4 32.1418C18.12 32.6018 25 32.6018 25 32.6018C25 32.6018 31.88 32.6018 33.6 32.1418C34.0708 32.0087 34.498 31.7536 34.8387 31.4024C35.1793 31.0513 35.4212 30.6164 35.54 30.1418C35.8524 28.4094 36.0063 26.6522 36 24.8918C36.0112 23.1048 35.8573 21.3205 35.54 19.5618V19.5618Z" stroke="#3D426A" stroke-width="2" stroke-linecap="round" stroke-linejoin="round"/>
<path d="M22.75 28.1618L28.5 24.8918L22.75 21.6218V28.1618Z" stroke="#3D426A" stroke-width="2" stroke-linecap="round" stroke-linejoin="round"/>
</svg>
