<svg width="50" height="51" viewBox="0 0 50 51" fill="none" xmlns="http://www.w3.org/2000/svg">
<circle cx="25" cy="25.1418" r="25" fill="#EBEBEB"/>
<path d="M30 15.1418H20C17.2386 15.1418 15 17.3804 15 20.1418V30.1418C15 32.9033 17.2386 35.1418 20 35.1418H30C32.7614 35.1418 35 32.9033 35 30.1418V20.1418C35 17.3804 32.7614 15.1418 30 15.1418Z" stroke="#3D426A" stroke-width="2" stroke-linecap="round" stroke-linejoin="round"/>
<path d="M29 24.5119C29.1234 25.3441 28.9813 26.1941 28.5938 26.9409C28.2063 27.6877 27.5932 28.2933 26.8416 28.6716C26.0901 29.0498 25.2385 29.1815 24.4078 29.0478C23.5771 28.9142 22.8098 28.522 22.2149 27.9271C21.6199 27.3321 21.2277 26.5648 21.0941 25.7341C20.9604 24.9035 21.0921 24.0518 21.4703 23.3003C21.8486 22.5488 22.4542 21.9356 23.201 21.5481C23.9478 21.1606 24.7978 21.0185 25.63 21.1419C26.4789 21.2678 27.2649 21.6634 27.8717 22.2702C28.4785 22.8771 28.8741 23.663 29 24.5119Z" stroke="#3D426A" stroke-width="2" stroke-linecap="round" stroke-linejoin="round"/>
<path d="M30.5 19.6418H30.51" stroke="#3D426A" stroke-width="2" stroke-linecap="round" stroke-linejoin="round"/>
</svg>
