<svg width="83" height="36" viewBox="0 0 83 36" fill="none" xmlns="http://www.w3.org/2000/svg">
<path d="M1.328 18V6.8H3.92V18H1.328ZM6.578 18V6.8H12.05C13.458 6.8 14.514 7.06667 15.218 7.6C15.9327 8.13333 16.29 8.83733 16.29 9.712C16.29 10.2987 16.146 10.8107 15.858 11.248C15.57 11.6747 15.1753 12.0053 14.674 12.24C14.1727 12.4747 13.5967 12.592 12.946 12.592L13.25 11.936C13.954 11.936 14.578 12.0533 15.122 12.288C15.666 12.512 16.0873 12.848 16.386 13.296C16.6953 13.744 16.85 14.2933 16.85 14.944C16.85 15.904 16.4713 16.656 15.714 17.2C14.9567 17.7333 13.842 18 12.37 18H6.578ZM9.154 16.048H12.178C12.85 16.048 13.3567 15.9413 13.698 15.728C14.05 15.504 14.226 15.152 14.226 14.672C14.226 14.2027 14.05 13.856 13.698 13.632C13.3567 13.3973 12.85 13.28 12.178 13.28H8.962V11.392H11.73C12.3593 11.392 12.8393 11.2853 13.17 11.072C13.5113 10.848 13.682 10.512 13.682 10.064C13.682 9.62667 13.5113 9.30133 13.17 9.088C12.8393 8.864 12.3593 8.752 11.73 8.752H9.154V16.048ZM24.1724 18.192C23.3084 18.192 22.503 18.0533 21.7564 17.776C21.0204 17.488 20.3804 17.0827 19.8364 16.56C19.2924 16.0373 18.8657 15.424 18.5564 14.72C18.2577 14.016 18.1084 13.2427 18.1084 12.4C18.1084 11.5573 18.2577 10.784 18.5564 10.08C18.8657 9.376 19.2924 8.76267 19.8364 8.24C20.391 7.71733 21.0364 7.31733 21.7724 7.04C22.5084 6.752 23.3137 6.608 24.1884 6.608C25.159 6.608 26.0337 6.77867 26.8124 7.12C27.6017 7.45067 28.263 7.94133 28.7964 8.592L27.1324 10.128C26.7484 9.69067 26.3217 9.36533 25.8524 9.152C25.383 8.928 24.871 8.816 24.3164 8.816C23.7937 8.816 23.3137 8.90133 22.8764 9.072C22.439 9.24267 22.0604 9.488 21.7404 9.808C21.4204 10.128 21.1697 10.5067 20.9884 10.944C20.8177 11.3813 20.7324 11.8667 20.7324 12.4C20.7324 12.9333 20.8177 13.4187 20.9884 13.856C21.1697 14.2933 21.4204 14.672 21.7404 14.992C22.0604 15.312 22.439 15.5573 22.8764 15.728C23.3137 15.8987 23.7937 15.984 24.3164 15.984C24.871 15.984 25.383 15.8773 25.8524 15.664C26.3217 15.44 26.7484 15.104 27.1324 14.656L28.7964 16.192C28.263 16.8427 27.6017 17.3387 26.8124 17.68C26.0337 18.0213 25.1537 18.192 24.1724 18.192ZM35.7524 18.192C34.867 18.192 34.0457 18.048 33.2884 17.76C32.5417 17.472 31.891 17.0667 31.3364 16.544C30.7924 16.0213 30.3657 15.408 30.0564 14.704C29.7577 14 29.6084 13.232 29.6084 12.4C29.6084 11.568 29.7577 10.8 30.0564 10.096C30.3657 9.392 30.7977 8.77867 31.3524 8.256C31.907 7.73333 32.5577 7.328 33.3044 7.04C34.051 6.752 34.8617 6.608 35.7364 6.608C36.6217 6.608 37.4324 6.752 38.1684 7.04C38.915 7.328 39.5604 7.73333 40.1044 8.256C40.659 8.77867 41.091 9.392 41.4004 10.096C41.7097 10.7893 41.8644 11.5573 41.8644 12.4C41.8644 13.232 41.7097 14.0053 41.4004 14.72C41.091 15.424 40.659 16.0373 40.1044 16.56C39.5604 17.072 38.915 17.472 38.1684 17.76C37.4324 18.048 36.627 18.192 35.7524 18.192ZM35.7364 15.984C36.2377 15.984 36.6964 15.8987 37.1124 15.728C37.539 15.5573 37.9124 15.312 38.2324 14.992C38.5524 14.672 38.7977 14.2933 38.9684 13.856C39.1497 13.4187 39.2404 12.9333 39.2404 12.4C39.2404 11.8667 39.1497 11.3813 38.9684 10.944C38.7977 10.5067 38.5524 10.128 38.2324 9.808C37.923 9.488 37.555 9.24267 37.1284 9.072C36.7017 8.90133 36.2377 8.816 35.7364 8.816C35.235 8.816 34.771 8.90133 34.3444 9.072C33.9284 9.24267 33.5604 9.488 33.2404 9.808C32.9204 10.128 32.6697 10.5067 32.4884 10.944C32.3177 11.3813 32.2324 11.8667 32.2324 12.4C32.2324 12.9227 32.3177 13.408 32.4884 13.856C32.6697 14.2933 32.915 14.672 33.2244 14.992C33.5444 15.312 33.9177 15.5573 34.3444 15.728C34.771 15.8987 35.235 15.984 35.7364 15.984ZM43.8124 18V6.8H45.9564L50.7244 14.704H49.5884L54.2764 6.8H56.4044L56.4364 18H54.0044L53.9884 10.528H54.4364L50.6924 16.816H49.5244L45.7004 10.528H46.2444V18H43.8124ZM57.6216 18L62.6136 6.8H65.1736L70.1816 18H67.4616L63.3656 8.112H64.3896L60.2776 18H57.6216ZM60.1176 15.6L60.8056 13.632H66.5656L67.2696 15.6H60.1176ZM76.5954 18.192C75.71 18.192 74.894 18.0533 74.1474 17.776C73.4114 17.488 72.766 17.0827 72.2114 16.56C71.6674 16.0373 71.2407 15.424 70.9314 14.72C70.6327 14.016 70.4834 13.2427 70.4834 12.4C70.4834 11.5573 70.6327 10.784 70.9314 10.08C71.2407 9.376 71.6727 8.76267 72.2274 8.24C72.782 7.71733 73.4327 7.31733 74.1794 7.04C74.926 6.752 75.7474 6.608 76.6434 6.608C77.6354 6.608 78.526 6.77333 79.3154 7.104C80.1154 7.43467 80.7874 7.91467 81.3314 8.544L79.6674 10.08C79.262 9.65333 78.8194 9.33867 78.3394 9.136C77.8594 8.92267 77.3367 8.816 76.7714 8.816C76.2274 8.816 75.7314 8.90133 75.2834 9.072C74.8354 9.24267 74.446 9.488 74.1154 9.808C73.7954 10.128 73.5447 10.5067 73.3634 10.944C73.1927 11.3813 73.1074 11.8667 73.1074 12.4C73.1074 12.9227 73.1927 13.4027 73.3634 13.84C73.5447 14.2773 73.7954 14.6613 74.1154 14.992C74.446 15.312 74.83 15.5573 75.2674 15.728C75.7154 15.8987 76.206 15.984 76.7394 15.984C77.2514 15.984 77.7474 15.904 78.2274 15.744C78.718 15.5733 79.1927 15.2907 79.6514 14.896L81.1234 16.768C80.5154 17.2267 79.806 17.5787 78.9954 17.824C78.1954 18.0693 77.3954 18.192 76.5954 18.192ZM78.7554 16.432V12.224H81.1234V16.768L78.7554 16.432Z" fill="#D7A700"/>
<line y1="35" x2="40" y2="35" stroke="#D7A700" stroke-width="2"/>
</svg>
