<svg width="24" height="25" viewBox="0 0 24 25" fill="none" xmlns="http://www.w3.org/2000/svg">
<path d="M11.99 2.64185C6.47 2.64185 2 7.12185 2 12.6418C2 18.1618 6.47 22.6418 11.99 22.6418C17.52 22.6418 22 18.1618 22 12.6418C22 7.12185 17.52 2.64185 11.99 2.64185ZM12 20.6418C7.58 20.6418 4 17.0618 4 12.6418C4 8.22185 7.58 4.64185 12 4.64185C16.42 4.64185 20 8.22185 20 12.6418C20 17.0618 16.42 20.6418 12 20.6418ZM12.5 7.64185H11V13.6418L16.25 16.7918L17 15.5618L12.5 12.8918V7.64185Z" fill="#A9ABC0"/>
</svg>
